# xmcd
#
# Track frame offsets: 
#        182
#        23035
#        49105
#        76927
#        99375
#        115150
#        134437
#        150047
#        162715
#        193835
#        204470
#        214770
#        226095
#
# Disc length: 3158 seconds
#
# Revision: 16
# Processed by: cddbd v1.5.2PL0 Copyright (c) Steve Scherf et al.
# Submitted via: ExactAudioCopyFreeDBPlugin 1.0
#
DISCID=a20c540d
DTITLE=B.B. King - The_Blues_Collection-B.B._King-The_King_Of_The_Blue
DTITLE=s
DYEAR=1993
DGENRE=Blues
TTITLE0=The Thrill Is Gone
TTITLE1=Guess Who
TTITLE2=Payin' The Cost To Be The Boss
TTITLE3=Everyday I Have The Blues
TTITLE4=The Letter
TTITLE5=Sweet Sixteen
TTITLE6=How Blue Can You Get
TTITLE7=Please Love Me
TTITLE8=Outside Help
TTITLE9=Recession Blues
TTITLE10=Don't Keep Me Waiting
TTITLE11=Tickle Britches
TTITLE12=Don't Break Your Promise
EXTD=
EXTT0=
EXTT1=
EXTT2=
EXTT3=
EXTT4=
EXTT5=
EXTT6=
EXTT7=
EXTT8=
EXTT9=
EXTT10=
EXTT11=
EXTT12=
PLAYORDER=
